<mxfile host="app.diagrams.net" modified="2023-08-17T09:33:21.109Z" agent="Mozilla/5.0 (Windows NT 10.0; Win64; x64) AppleWebKit/537.36 (KHTML, like Gecko) Chrome/115.0.0.0 Safari/537.36 OPR/101.0.0.0" etag="40XUQFtvfBOrBTTsQ2hK" version="21.6.8" type="google">
  <diagram name="Seite-1" id="tAjF7EEUV1cGHH0A3p_m">
    <mxGraphModel dx="2000" dy="1096" grid="1" gridSize="10" guides="1" tooltips="1" connect="1" arrows="1" fold="1" page="1" pageScale="1" pageWidth="827" pageHeight="1169" math="0" shadow="0">
      <root>
        <mxCell id="0" />
        <mxCell id="1" parent="0" />
        <mxCell id="UrJgalA3kgY9yHbqh12d-3" value="" style="endArrow=classic;html=1;rounded=0;exitX=0.5;exitY=1;exitDx=0;exitDy=0;entryX=0.5;entryY=0;entryDx=0;entryDy=0;exitPerimeter=0;" edge="1" parent="1" source="UrJgalA3kgY9yHbqh12d-19" target="UrJgalA3kgY9yHbqh12d-4">
          <mxGeometry width="50" height="50" relative="1" as="geometry">
            <mxPoint x="167.5" y="250" as="sourcePoint" />
            <mxPoint x="112.5" y="320" as="targetPoint" />
          </mxGeometry>
        </mxCell>
        <mxCell id="UrJgalA3kgY9yHbqh12d-9" value="Yes" style="edgeStyle=orthogonalEdgeStyle;rounded=0;orthogonalLoop=1;jettySize=auto;html=1;" edge="1" parent="1" source="UrJgalA3kgY9yHbqh12d-4">
          <mxGeometry x="0.005" y="30" relative="1" as="geometry">
            <mxPoint x="140" y="500" as="targetPoint" />
            <mxPoint y="-1" as="offset" />
          </mxGeometry>
        </mxCell>
        <mxCell id="UrJgalA3kgY9yHbqh12d-4" value="awake?" style="rhombus;whiteSpace=wrap;html=1;" vertex="1" parent="1">
          <mxGeometry x="40" y="320" width="200" height="80" as="geometry" />
        </mxCell>
        <mxCell id="UrJgalA3kgY9yHbqh12d-5" value="NO" style="endArrow=classic;html=1;rounded=0;exitX=1;exitY=0.5;exitDx=0;exitDy=0;" edge="1" parent="1" source="UrJgalA3kgY9yHbqh12d-4">
          <mxGeometry y="20" width="50" height="50" relative="1" as="geometry">
            <mxPoint x="390" y="590" as="sourcePoint" />
            <mxPoint x="400" y="360" as="targetPoint" />
            <mxPoint as="offset" />
          </mxGeometry>
        </mxCell>
        <mxCell id="UrJgalA3kgY9yHbqh12d-11" value="No" style="edgeStyle=orthogonalEdgeStyle;rounded=0;orthogonalLoop=1;jettySize=auto;html=1;" edge="1" parent="1">
          <mxGeometry x="-0.0062" y="-19" relative="1" as="geometry">
            <mxPoint x="400" y="539.5" as="targetPoint" />
            <mxPoint x="240" y="539.5" as="sourcePoint" />
            <Array as="points">
              <mxPoint x="320" y="539.5" />
              <mxPoint x="320" y="540.5" />
            </Array>
            <mxPoint x="19" y="-19" as="offset" />
          </mxGeometry>
        </mxCell>
        <mxCell id="UrJgalA3kgY9yHbqh12d-13" value="Yes" style="edgeStyle=orthogonalEdgeStyle;rounded=0;orthogonalLoop=1;jettySize=auto;html=1;" edge="1" parent="1" source="UrJgalA3kgY9yHbqh12d-10">
          <mxGeometry x="0.005" y="30" relative="1" as="geometry">
            <mxPoint x="140" y="680" as="targetPoint" />
            <mxPoint y="-1" as="offset" />
          </mxGeometry>
        </mxCell>
        <mxCell id="UrJgalA3kgY9yHbqh12d-10" value="can i stay at home?" style="rhombus;whiteSpace=wrap;html=1;" vertex="1" parent="1">
          <mxGeometry x="40" y="500" width="200" height="80" as="geometry" />
        </mxCell>
        <mxCell id="UrJgalA3kgY9yHbqh12d-12" value="change clothes" style="strokeWidth=2;html=1;shape=mxgraph.flowchart.terminator;whiteSpace=wrap;" vertex="1" parent="1">
          <mxGeometry x="400" y="510" width="100" height="60" as="geometry" />
        </mxCell>
        <mxCell id="UrJgalA3kgY9yHbqh12d-19" value="Morning be ready for the day" style="strokeWidth=2;html=1;shape=mxgraph.flowchart.terminator;whiteSpace=wrap;" vertex="1" parent="1">
          <mxGeometry x="90" y="190" width="100" height="60" as="geometry" />
        </mxCell>
        <mxCell id="UrJgalA3kgY9yHbqh12d-21" value="Ready for the day" style="strokeWidth=2;html=1;shape=mxgraph.flowchart.terminator;whiteSpace=wrap;" vertex="1" parent="1">
          <mxGeometry x="90" y="680" width="100" height="60" as="geometry" />
        </mxCell>
        <mxCell id="UrJgalA3kgY9yHbqh12d-23" style="edgeStyle=orthogonalEdgeStyle;rounded=0;orthogonalLoop=1;jettySize=auto;html=1;entryX=0.717;entryY=0.221;entryDx=0;entryDy=0;entryPerimeter=0;" edge="1" parent="1" source="UrJgalA3kgY9yHbqh12d-22" target="UrJgalA3kgY9yHbqh12d-10">
          <mxGeometry relative="1" as="geometry">
            <mxPoint x="180" y="490" as="targetPoint" />
            <Array as="points">
              <mxPoint x="450" y="440" />
              <mxPoint x="401" y="440" />
              <mxPoint x="401" y="480" />
              <mxPoint x="180" y="480" />
              <mxPoint x="180" y="518" />
            </Array>
          </mxGeometry>
        </mxCell>
        <mxCell id="UrJgalA3kgY9yHbqh12d-22" value="Drink coffee" style="shape=parallelogram;perimeter=parallelogramPerimeter;whiteSpace=wrap;html=1;fixedSize=1;" vertex="1" parent="1">
          <mxGeometry x="390" y="330" width="120" height="60" as="geometry" />
        </mxCell>
      </root>
    </mxGraphModel>
  </diagram>
</mxfile>
